Coordinates
version=1
nRows=17
nColumns=40
inDegrees=yes

Units are S.I. units (second, meters, Newtons, ...)
Angles are in degrees.

endheader
time	pelvis_tilt	pelvis_list	pelvis_rotation	pelvis_tx	pelvis_ty	pelvis_tz	hip_flexion_r	hip_adduction_r	hip_rotation_r	knee_angle_r	knee_angle_r_beta	ankle_angle_r	subtalar_angle_r	mtp_angle_r	hip_flexion_l	hip_adduction_l	hip_rotation_l	knee_angle_l	knee_angle_l_beta	ankle_angle_l	subtalar_angle_l	mtp_angle_l	lumbar_extension	lumbar_bending	lumbar_rotation	arm_flex_r	arm_add_r	arm_rot_r	elbow_flex_r	pro_sup_r	wrist_flex_r	wrist_dev_r	arm_flex_l	arm_add_l	arm_rot_l	elbow_flex_l	pro_sup_l	wrist_flex_l	wrist_dev_l
     37.72750000	     -5.53096252	     -4.11277544	      2.90673393	      1.07990936	      0.92017076	      0.45351053	     24.07409926	     -1.20337556	    -12.76805474	     23.03966688	     23.03966688	      5.55410311	     -7.81533476	      0.03325370	      1.20929647	    -10.31011633	     -7.05542340	     31.28613267	     31.28613267	     13.43974672	      1.33845103	    -18.49995877	    -10.54904453	      3.02154404	      0.68838118	     -8.38907884	    -18.04759823	      4.29256097	     45.57183581	     45.30846948	      0.00000000	      0.00000000	      4.88190006	    -11.11816206	    -16.91206785	     99.52849013	     48.34522283	      0.00000000	      0.00000000
     37.73942857	     -5.55935704	     -4.32095463	      3.11140474	      1.08047759	      0.92122836	      0.45608243	     23.27970073	     -0.80726514	    -13.20571480	     22.53873430	     22.53873430	      5.89930694	     -7.48581303	     -0.03000005	      2.75131462	    -11.02968537	     -6.19928570	     34.51381505	     34.51381505	     11.68525699	      0.24353841	    -19.27360050	    -10.43675181	      3.21924278	      0.73009378	     -7.01112178	    -18.20239873	      4.27429123	     46.45078993	     45.28721480	      0.00000000	      0.00000000	      4.16600358	    -11.00791375	    -16.53058556	     98.66473015	     48.30782251	      0.00000000	      0.00000000
     37.75135714	     -5.51432357	     -4.53844749	      3.32446696	      1.08084386	      0.92219199	      0.45855437	     22.50147037	     -0.43235329	    -13.65968854	     22.19522101	     22.19522101	      6.26288636	     -7.12605922	     -0.14426480	      4.39790724	    -11.70555319	     -5.19147629	     37.92850040	     37.92850040	      9.64900384	     -1.06994510	    -19.83113736	    -10.43485588	      3.40596046	      0.69711351	     -5.42377867	    -18.38888995	      4.19520716	     47.56327824	     45.26058714	      0.00000000	      0.00000000	      3.56342282	    -10.91537687	    -16.17295602	     97.58369584	     48.26533469	      0.00000000	      0.00000000
     37.76328571	     -5.59988381	     -4.53745703	      3.52104349	      1.08096927	      0.92288136	      0.46072630	     21.89719011	     -0.34960929	    -14.17491063	     21.92419278	     21.92419278	      6.71761344	     -6.40756996	     -0.40146930	      6.17674564	    -11.80824805	     -3.66846483	     41.06146958	     41.06146958	      6.24405441	     -4.24137430	    -22.26927780	    -10.29032835	      3.43030819	      0.90881311	     -4.91146175	    -19.19478731	      4.98963182	     51.13771363	     45.11340686	      0.00000000	      0.00000000	      3.31316788	    -10.90148847	    -15.50377822	     95.13442685	     48.21043110	      0.00000000	      0.00000000
     37.77521429	     -5.68782717	     -4.74353083	      3.77432881	      1.08078552	      0.92337848	      0.46296757	     21.30446480	      0.01167289	    -14.51505984	     21.56692414	     21.56692414	      7.01698058	     -6.14816378	     -0.46735275	      8.33015790	    -12.25557446	     -2.35379943	     44.78283707	     44.78283707	      3.96218334	     -5.76636790	    -21.80435415	    -10.17429627	      3.60242271	      0.68564767	     -3.31380440	    -19.33485801	      4.78383598	     52.34908497	     45.09101972	      0.00000000	      0.00000000	      2.52259591	    -10.96897114	    -15.12708774	     93.62060135	     48.15895578	      0.00000000	      0.00000000
     37.78714286	     -5.70996382	     -4.78692476	      3.96742413	      1.08049334	      0.92381177	      0.46504357	     20.73733410	      0.17665713	    -14.85429879	     21.41045816	     21.41045816	      7.47037826	     -5.87082947	     -0.62998960	     10.41198620	    -12.31173933	     -0.94127977	     48.40009576	     48.40009576	      1.69628259	     -7.87732615	    -20.47643251	    -10.10073112	      3.60617418	      0.56791636	     -1.71283593	    -19.62918034	      4.77080375	     54.31619658	     45.03625182	      0.00000000	      0.00000000	      2.12739630	    -10.96747955	    -14.72714978	     91.26792951	     48.09528972	      0.00000000	      0.00000000
     37.79907143	     -5.74389141	     -5.02929459	      4.25297863	      1.07990662	      0.92404406	      0.46697287	     20.17470637	      0.55192745	    -15.22050451	     21.15391035	     21.15391035	      7.80384243	     -5.72943987	     -0.69997085	     12.69288170	    -12.58359329	      0.41320891	     52.04034690	     52.04034690	     -0.43964092	     -9.48937835	    -19.05989258	    -10.05009720	      3.83670391	      0.46553465	     -0.11480694	    -19.88533765	      4.66376818	     55.87016696	     44.99776733	      0.00000000	      0.00000000	      1.61758764	    -10.85688383	    -14.30357927	     89.33046020	     48.03302290	      0.00000000	      0.00000000
     37.81100000	     -5.73591506	     -5.09392931	      4.45617037	      1.07910651	      0.92431886	      0.46872692	     19.65990937	      0.72859088	    -15.45516996	     21.07102157	     21.07102157	      8.25135959	     -5.52659124	     -0.76621180	     15.02907018	    -12.53315021	      1.64684191	     55.82168169	     55.82168169	     -0.69895983	    -10.04185543	    -13.16513526	    -10.09119987	      3.93488208	      1.24967398	      0.29675011	    -20.80340161	      4.65016774	     59.94581775	     44.89766798	      0.00000000	      0.00000000	      2.33306924	    -10.70376541	    -12.84190915	     85.19973092	     47.90105532	      0.00000000	      0.00000000
     37.82292857	     -5.76022260	     -5.27274842	      4.75336229	      1.07810311	      0.92452007	      0.47034190	     19.13042031	      1.03735775	    -15.70982534	     20.83189168	     20.83189168	      8.57909188	     -5.51756704	     -0.83005644	     17.27284360	    -12.51998591	      2.88703746	     58.90916617	     58.90916617	     -2.45671521	    -11.83631961	    -11.49312372	    -10.11333518	      4.08623661	      0.92184841	      2.34924674	    -20.82682407	      4.32486664	     61.28954582	     44.87931722	      0.00000000	      0.00000000	      1.74407556	    -10.65562241	    -12.54423826	     82.99679828	     47.84215750	      0.00000000	      0.00000000
     37.83485714	     -5.77700161	     -5.34021100	      5.00726519	      1.07692332	      0.92477269	      0.47170709	     18.62184828	      1.20250058	    -15.95553788	     20.64999827	     20.64999827	      8.95091268	     -5.32929249	     -0.97717474	     19.61520170	    -12.35597338	      3.86211907	     62.05571012	     62.05571012	     -2.04850088	    -12.46879728	     -5.57282499	    -10.08250172	      4.17754649	      1.41149950	      3.63253882	    -21.48547829	      4.46434447	     63.76712315	     44.82367516	      0.00000000	      0.00000000	      2.65727253	    -10.10264807	    -12.01859236	     77.87393348	     47.73711852	      0.00000000	      0.00000000
     37.84678571	     -5.71887391	     -5.52982019	      5.37761893	      1.07569449	      0.92504302	      0.47292493	     17.99260110	      1.52793667	    -16.21165909	     20.35295034	     20.35295034	      9.27435781	     -5.45238850	     -0.99444787	     21.70056696	    -12.26703307	      4.84554683	     64.44605254	     64.44605254	     -3.02699407	    -14.23330206	     -4.17681313	    -10.21253976	      4.33282632	      0.96733739	      5.80178499	    -21.35305568	      4.03461423	     65.25230219	     44.80481814	      0.00000000	      0.00000000	      1.93501809	    -10.10151877	    -11.58756045	     75.87109108	     47.66798749	      0.00000000	      0.00000000
     37.85871429	     -5.71362279	     -5.59506057	      5.72954328	      1.07425468	      0.92540816	      0.47393149	     17.40329558	      1.70953388	    -16.42025331	     20.01000242	     20.01000242	      9.53592051	     -5.46047602	     -1.02785725	     23.78230825	    -12.00732026	      5.61683377	     66.46963877	     66.46963877	     -3.32887056	    -15.84156241	     -2.11884987	    -10.29151744	      4.40436273	      0.51356441	      7.98855050	    -21.18783906	      3.86513542	     67.04597255	     44.76808091	      0.00000000	      0.00000000	      1.67873653	    -10.03006785	    -11.25861422	     72.38213039	     47.58566067	      0.00000000	      0.00000000
     37.87064286	     -5.66434406	     -5.62387991	      6.00071614	      1.07277365	      0.92588763	      0.47476046	     16.76867565	      1.85202647	    -16.60972444	     19.67605050	     19.67605050	      9.81079141	     -5.34327225	     -1.18787764	     25.85099523	    -11.81965139	      6.02423650	     68.34541937	     68.34541937	     -1.72601969	    -16.30758015	      3.10794494	    -10.35709407	      4.48335421	      1.39197217	      9.19460989	    -21.99063801	      3.83928764	     69.31830286	     44.72921800	      0.00000000	      0.00000000	      3.29451686	     -9.15118746	    -10.74158770	     65.98420914	     47.45923025	      0.00000000	      0.00000000
     37.88257143	     -5.62107093	     -5.72072897	      6.36039413	      1.07122964	      0.92640872	      0.47554729	     16.07757163	      2.09490801	    -16.84686830	     19.17847202	     19.17847202	      9.95724107	     -5.37177492	     -1.11913355	     27.73158810	    -11.71041314	      6.38537677	     69.45184005	     69.45184005	     -1.46158673	    -17.54436510	      4.05110107	    -10.52726834	      4.53825351	      0.92527696	     11.48381242	    -21.57299929	      3.32497829	     71.05708913	     44.70663752	      0.00000000	      0.00000000	      2.58995983	     -9.13818270	    -10.35966273	     63.71530201	     47.39166181	      0.00000000	      0.00000000
     37.89450000	     -5.61542973	     -5.70100390	      6.67408280	      1.06959064	      0.92696795	      0.47606558	     15.41127924	      2.20626612	    -16.97788090	     18.67917870	     18.67917870	     10.19534760	     -5.31923975	     -1.24056641	     29.65167068	    -11.45106769	      6.55223835	     70.33366404	     70.33366404	      0.43601956	    -17.97542129	      8.26744362	    -10.61256290	      4.56940461	      1.51997915	     12.88831451	    -21.91455322	      2.80079238	     73.22374419	     44.69649335	      0.00000000	      0.00000000	      3.81871099	     -8.47557895	     -9.92494954	     57.76835345	     47.27755685	      0.00000000	      0.00000000
     37.90642857	     -5.58068298	     -5.71743200	      7.01056879	      1.06798257	      0.92753713	      0.47659544	     14.66891677	      2.38734838	    -17.13329802	     18.06827140	     18.06827140	     10.35630383	     -5.30972155	     -1.16122997	     31.34325800	    -11.34721297	      6.54750740	     70.55298138	     70.55298138	      1.39567501	    -18.52137717	      9.10933945	    -10.79806627	      4.54592357	      1.08294642	     15.13120787	    -21.39178544	      2.36977741	     75.05697796	     44.67057882	      0.00000000	      0.00000000	      3.18752637	     -8.39477580	     -9.63425171	     55.27002340	     47.21238436	      0.00000000	      0.00000000
     37.91835714	     -5.61895988	     -5.66759706	      7.28439906	      1.06622207	      0.92804253	      0.47687901	     14.05242878	      2.46316233	    -17.23344402	     17.55396378	     17.55396378	     10.50417748	     -5.28434067	     -1.22520957	     33.05654488	    -11.06172509	      6.48425914	     70.46928681	     70.46928681	      3.32863142	    -18.75519065	     12.38482584	    -10.85859237	      4.50613036	      1.58783009	     16.71587634	    -21.65417591	      2.07472182	     76.98318149	     44.65711162	      0.00000000	      0.00000000	      4.17090031	     -7.80543410	     -9.48604619	     49.87886799	     47.13033497	      0.00000000	      0.00000000
